<svg xmlns="http://www.w3.org/2000/svg" xmlns:xlink="http://www.w3.org/1999/xlink" width="165" zoomAndPan="magnify" viewBox="0 0 123.75 143.999998" height="192" preserveAspectRatio="xMidYMid meet" version="1.0"><defs><clipPath id="a476f16679"><path d="M 0 0.144531 L 123.5 0.144531 L 123.5 143.855469 L 0 143.855469 Z M 0 0.144531 " clip-rule="nonzero"/></clipPath><clipPath id="b6f98ddf89"><path d="M 61.75 0.144531 L 123.5 36.074219 L 123.5 107.925781 L 61.75 143.855469 L 0 107.925781 L 0 36.074219 Z M 61.75 0.144531 " clip-rule="nonzero"/></clipPath><linearGradient x1="0" gradientTransform="matrix(0.482424, 0, 0, 0.482424, 0, 0.14507)" y1="148.945007" x2="255.999988" gradientUnits="userSpaceOnUse" y2="148.945007" id="d4035bdf0e"><stop stop-opacity="1" stop-color="rgb(2.69928%, 72.198486%, 17.999268%)" offset="0"/><stop stop-opacity="1" stop-color="rgb(2.677917%, 72.026062%, 17.919922%)" offset="0.015625"/><stop stop-opacity="1" stop-color="rgb(2.635193%, 71.682739%, 17.759705%)" offset="0.03125"/><stop stop-opacity="1" stop-color="rgb(2.593994%, 71.339417%, 17.601013%)" offset="0.046875"/><stop stop-opacity="1" stop-color="rgb(2.55127%, 70.996094%, 17.440796%)" offset="0.0625"/><stop stop-opacity="1" stop-color="rgb(2.508545%, 70.651245%, 17.282104%)" offset="0.078125"/><stop stop-opacity="1" stop-color="rgb(2.467346%, 70.307922%, 17.121887%)" offset="0.09375"/><stop stop-opacity="1" stop-color="rgb(2.424622%, 69.9646%, 16.963196%)" offset="0.109375"/><stop stop-opacity="1" stop-color="rgb(2.381897%, 69.621277%, 16.802979%)" offset="0.125"/><stop stop-opacity="1" stop-color="rgb(2.340698%, 69.276428%, 16.644287%)" offset="0.140625"/><stop stop-opacity="1" stop-color="rgb(2.297974%, 68.933105%, 16.485596%)" offset="0.15625"/><stop stop-opacity="1" stop-color="rgb(2.255249%, 68.589783%, 16.325378%)" offset="0.171875"/><stop stop-opacity="1" stop-color="rgb(2.21405%, 68.244934%, 16.166687%)" offset="0.1875"/><stop stop-opacity="1" stop-color="rgb(2.171326%, 67.901611%, 16.00647%)" offset="0.203125"/><stop stop-opacity="1" stop-color="rgb(2.130127%, 67.558289%, 15.847778%)" offset="0.21875"/><stop stop-opacity="1" stop-color="rgb(2.087402%, 67.214966%, 15.687561%)" offset="0.234375"/><stop stop-opacity="1" stop-color="rgb(2.044678%, 66.870117%, 15.52887%)" offset="0.25"/><stop stop-opacity="1" stop-color="rgb(2.003479%, 66.526794%, 15.368652%)" offset="0.265625"/><stop stop-opacity="1" stop-color="rgb(1.960754%, 66.183472%, 15.209961%)" offset="0.28125"/><stop stop-opacity="1" stop-color="rgb(1.91803%, 65.838623%, 15.049744%)" offset="0.296875"/><stop stop-opacity="1" stop-color="rgb(1.876831%, 65.4953%, 14.891052%)" offset="0.3125"/><stop stop-opacity="1" stop-color="rgb(1.834106%, 65.151978%, 14.732361%)" offset="0.328125"/><stop stop-opacity="1" stop-color="rgb(1.791382%, 64.808655%, 14.572144%)" offset="0.34375"/><stop stop-opacity="1" stop-color="rgb(1.750183%, 64.463806%, 14.413452%)" offset="0.359375"/><stop stop-opacity="1" stop-color="rgb(1.707458%, 64.120483%, 14.253235%)" offset="0.375"/><stop stop-opacity="1" stop-color="rgb(1.664734%, 63.777161%, 14.094543%)" offset="0.390625"/><stop stop-opacity="1" stop-color="rgb(1.623535%, 63.432312%, 13.934326%)" offset="0.40625"/><stop stop-opacity="1" stop-color="rgb(1.580811%, 63.088989%, 13.775635%)" offset="0.421875"/><stop stop-opacity="1" stop-color="rgb(1.538086%, 62.745667%, 13.615417%)" offset="0.4375"/><stop stop-opacity="1" stop-color="rgb(1.496887%, 62.402344%, 13.456726%)" offset="0.453125"/><stop stop-opacity="1" stop-color="rgb(1.454163%, 62.057495%, 13.298035%)" offset="0.46875"/><stop stop-opacity="1" stop-color="rgb(1.412964%, 61.714172%, 13.137817%)" offset="0.484375"/><stop stop-opacity="1" stop-color="rgb(1.370239%, 61.37085%, 12.979126%)" offset="0.5"/><stop stop-opacity="1" stop-color="rgb(1.327515%, 61.027527%, 12.818909%)" offset="0.515625"/><stop stop-opacity="1" stop-color="rgb(1.286316%, 60.682678%, 12.660217%)" offset="0.53125"/><stop stop-opacity="1" stop-color="rgb(1.243591%, 60.339355%, 12.5%)" offset="0.546875"/><stop stop-opacity="1" stop-color="rgb(1.200867%, 59.996033%, 12.341309%)" offset="0.5625"/><stop stop-opacity="1" stop-color="rgb(1.159668%, 59.651184%, 12.181091%)" offset="0.578125"/><stop stop-opacity="1" stop-color="rgb(1.116943%, 59.307861%, 12.0224%)" offset="0.59375"/><stop stop-opacity="1" stop-color="rgb(1.074219%, 58.964539%, 11.863708%)" offset="0.609375"/><stop stop-opacity="1" stop-color="rgb(1.03302%, 58.621216%, 11.703491%)" offset="0.625"/><stop stop-opacity="1" stop-color="rgb(0.990295%, 58.276367%, 11.5448%)" offset="0.640625"/><stop stop-opacity="1" stop-color="rgb(0.947571%, 57.933044%, 11.384583%)" offset="0.65625"/><stop stop-opacity="1" stop-color="rgb(0.906372%, 57.589722%, 11.225891%)" offset="0.671875"/><stop stop-opacity="1" stop-color="rgb(0.863647%, 57.244873%, 11.065674%)" offset="0.6875"/><stop stop-opacity="1" stop-color="rgb(0.820923%, 56.90155%, 10.906982%)" offset="0.703125"/><stop stop-opacity="1" stop-color="rgb(0.779724%, 56.558228%, 10.746765%)" offset="0.71875"/><stop stop-opacity="1" stop-color="rgb(0.737%, 56.214905%, 10.588074%)" offset="0.734375"/><stop stop-opacity="1" stop-color="rgb(0.695801%, 55.870056%, 10.427856%)" offset="0.75"/><stop stop-opacity="1" stop-color="rgb(0.653076%, 55.526733%, 10.269165%)" offset="0.765625"/><stop stop-opacity="1" stop-color="rgb(0.610352%, 55.183411%, 10.110474%)" offset="0.78125"/><stop stop-opacity="1" stop-color="rgb(0.569153%, 54.838562%, 9.950256%)" offset="0.796875"/><stop stop-opacity="1" stop-color="rgb(0.526428%, 54.495239%, 9.791565%)" offset="0.8125"/><stop stop-opacity="1" stop-color="rgb(0.483704%, 54.151917%, 9.631348%)" offset="0.828125"/><stop stop-opacity="1" stop-color="rgb(0.442505%, 53.808594%, 9.472656%)" offset="0.84375"/><stop stop-opacity="1" stop-color="rgb(0.39978%, 53.463745%, 9.312439%)" offset="0.859375"/><stop stop-opacity="1" stop-color="rgb(0.357056%, 53.120422%, 9.153748%)" offset="0.875"/><stop stop-opacity="1" stop-color="rgb(0.315857%, 52.7771%, 8.99353%)" offset="0.890625"/><stop stop-opacity="1" stop-color="rgb(0.273132%, 52.433777%, 8.834839%)" offset="0.90625"/><stop stop-opacity="1" stop-color="rgb(0.230408%, 52.088928%, 8.676147%)" offset="0.921875"/><stop stop-opacity="1" stop-color="rgb(0.189209%, 51.745605%, 8.51593%)" offset="0.9375"/><stop stop-opacity="1" stop-color="rgb(0.146484%, 51.402283%, 8.357239%)" offset="0.953125"/><stop stop-opacity="1" stop-color="rgb(0.10376%, 51.057434%, 8.197021%)" offset="0.96875"/><stop stop-opacity="1" stop-color="rgb(0.062561%, 50.714111%, 8.03833%)" offset="0.984375"/><stop stop-opacity="1" stop-color="rgb(0.0198364%, 50.370789%, 7.878113%)" offset="1"/></linearGradient><clipPath id="1980246f9e"><path d="M 5.796875 8.90625 L 117.703125 8.90625 L 117.703125 135.09375 L 5.796875 135.09375 Z M 5.796875 8.90625 " clip-rule="nonzero"/></clipPath><clipPath id="975732c764"><path d="M 68.21875 10.652344 L 111.234375 35.679688 C 115.242188 38.011719 117.703125 42.296875 117.703125 46.929688 L 117.703125 97.070312 C 117.703125 101.703125 115.242188 105.988281 111.234375 108.320312 L 68.21875 133.347656 C 64.21875 135.671875 59.28125 135.671875 55.28125 133.347656 L 12.265625 108.320312 C 8.257812 105.988281 5.796875 101.703125 5.796875 97.070312 L 5.796875 46.929688 C 5.796875 42.296875 8.257812 38.011719 12.265625 35.679688 L 55.28125 10.652344 C 59.28125 8.328125 64.21875 8.328125 68.21875 10.652344 Z M 68.21875 10.652344 " clip-rule="nonzero"/></clipPath><linearGradient x1="-0.000000141468" gradientTransform="matrix(0.437146, 0, 0, 0.437146, 5.795499, 6.888938)" y1="148.945007" x2="255.999983" gradientUnits="userSpaceOnUse" y2="148.945007" id="1dafa49fa8"><stop stop-opacity="1" stop-color="rgb(2.69928%, 72.198486%, 17.999268%)" offset="0"/><stop stop-opacity="1" stop-color="rgb(2.677917%, 72.026062%, 17.919922%)" offset="0.015625"/><stop stop-opacity="1" stop-color="rgb(2.635193%, 71.682739%, 17.759705%)" offset="0.03125"/><stop stop-opacity="1" stop-color="rgb(2.593994%, 71.339417%, 17.601013%)" offset="0.046875"/><stop stop-opacity="1" stop-color="rgb(2.55127%, 70.996094%, 17.440796%)" offset="0.0625"/><stop stop-opacity="1" stop-color="rgb(2.508545%, 70.651245%, 17.282104%)" offset="0.078125"/><stop stop-opacity="1" stop-color="rgb(2.467346%, 70.307922%, 17.121887%)" offset="0.09375"/><stop stop-opacity="1" stop-color="rgb(2.424622%, 69.9646%, 16.963196%)" offset="0.109375"/><stop stop-opacity="1" stop-color="rgb(2.381897%, 69.621277%, 16.802979%)" offset="0.125"/><stop stop-opacity="1" stop-color="rgb(2.340698%, 69.276428%, 16.644287%)" offset="0.140625"/><stop stop-opacity="1" stop-color="rgb(2.297974%, 68.933105%, 16.485596%)" offset="0.15625"/><stop stop-opacity="1" stop-color="rgb(2.255249%, 68.589783%, 16.325378%)" offset="0.171875"/><stop stop-opacity="1" stop-color="rgb(2.21405%, 68.244934%, 16.166687%)" offset="0.1875"/><stop stop-opacity="1" stop-color="rgb(2.171326%, 67.901611%, 16.00647%)" offset="0.203125"/><stop stop-opacity="1" stop-color="rgb(2.130127%, 67.558289%, 15.847778%)" offset="0.21875"/><stop stop-opacity="1" stop-color="rgb(2.087402%, 67.214966%, 15.687561%)" offset="0.234375"/><stop stop-opacity="1" stop-color="rgb(2.044678%, 66.870117%, 15.52887%)" offset="0.25"/><stop stop-opacity="1" stop-color="rgb(2.003479%, 66.526794%, 15.368652%)" offset="0.265625"/><stop stop-opacity="1" stop-color="rgb(1.960754%, 66.183472%, 15.209961%)" offset="0.28125"/><stop stop-opacity="1" stop-color="rgb(1.91803%, 65.838623%, 15.049744%)" offset="0.296875"/><stop stop-opacity="1" stop-color="rgb(1.876831%, 65.4953%, 14.891052%)" offset="0.3125"/><stop stop-opacity="1" stop-color="rgb(1.834106%, 65.151978%, 14.732361%)" offset="0.328125"/><stop stop-opacity="1" stop-color="rgb(1.791382%, 64.808655%, 14.572144%)" offset="0.34375"/><stop stop-opacity="1" stop-color="rgb(1.750183%, 64.463806%, 14.413452%)" offset="0.359375"/><stop stop-opacity="1" stop-color="rgb(1.707458%, 64.120483%, 14.253235%)" offset="0.375"/><stop stop-opacity="1" stop-color="rgb(1.664734%, 63.777161%, 14.094543%)" offset="0.390625"/><stop stop-opacity="1" stop-color="rgb(1.623535%, 63.432312%, 13.934326%)" offset="0.40625"/><stop stop-opacity="1" stop-color="rgb(1.580811%, 63.088989%, 13.775635%)" offset="0.421875"/><stop stop-opacity="1" stop-color="rgb(1.538086%, 62.745667%, 13.615417%)" offset="0.4375"/><stop stop-opacity="1" stop-color="rgb(1.496887%, 62.402344%, 13.456726%)" offset="0.453125"/><stop stop-opacity="1" stop-color="rgb(1.454163%, 62.057495%, 13.298035%)" offset="0.46875"/><stop stop-opacity="1" stop-color="rgb(1.412964%, 61.714172%, 13.137817%)" offset="0.484375"/><stop stop-opacity="1" stop-color="rgb(1.370239%, 61.37085%, 12.979126%)" offset="0.5"/><stop stop-opacity="1" stop-color="rgb(1.327515%, 61.027527%, 12.818909%)" offset="0.515625"/><stop stop-opacity="1" stop-color="rgb(1.286316%, 60.682678%, 12.660217%)" offset="0.53125"/><stop stop-opacity="1" stop-color="rgb(1.243591%, 60.339355%, 12.5%)" offset="0.546875"/><stop stop-opacity="1" stop-color="rgb(1.200867%, 59.996033%, 12.341309%)" offset="0.5625"/><stop stop-opacity="1" stop-color="rgb(1.159668%, 59.651184%, 12.181091%)" offset="0.578125"/><stop stop-opacity="1" stop-color="rgb(1.116943%, 59.307861%, 12.0224%)" offset="0.59375"/><stop stop-opacity="1" stop-color="rgb(1.074219%, 58.964539%, 11.863708%)" offset="0.609375"/><stop stop-opacity="1" stop-color="rgb(1.03302%, 58.621216%, 11.703491%)" offset="0.625"/><stop stop-opacity="1" stop-color="rgb(0.990295%, 58.276367%, 11.5448%)" offset="0.640625"/><stop stop-opacity="1" stop-color="rgb(0.947571%, 57.933044%, 11.384583%)" offset="0.65625"/><stop stop-opacity="1" stop-color="rgb(0.906372%, 57.589722%, 11.225891%)" offset="0.671875"/><stop stop-opacity="1" stop-color="rgb(0.863647%, 57.244873%, 11.065674%)" offset="0.6875"/><stop stop-opacity="1" stop-color="rgb(0.820923%, 56.90155%, 10.906982%)" offset="0.703125"/><stop stop-opacity="1" stop-color="rgb(0.779724%, 56.558228%, 10.746765%)" offset="0.71875"/><stop stop-opacity="1" stop-color="rgb(0.737%, 56.214905%, 10.588074%)" offset="0.734375"/><stop stop-opacity="1" stop-color="rgb(0.695801%, 55.870056%, 10.427856%)" offset="0.75"/><stop stop-opacity="1" stop-color="rgb(0.653076%, 55.526733%, 10.269165%)" offset="0.765625"/><stop stop-opacity="1" stop-color="rgb(0.610352%, 55.183411%, 10.110474%)" offset="0.78125"/><stop stop-opacity="1" stop-color="rgb(0.569153%, 54.838562%, 9.950256%)" offset="0.796875"/><stop stop-opacity="1" stop-color="rgb(0.526428%, 54.495239%, 9.791565%)" offset="0.8125"/><stop stop-opacity="1" stop-color="rgb(0.483704%, 54.151917%, 9.631348%)" offset="0.828125"/><stop stop-opacity="1" stop-color="rgb(0.442505%, 53.808594%, 9.472656%)" offset="0.84375"/><stop stop-opacity="1" stop-color="rgb(0.39978%, 53.463745%, 9.312439%)" offset="0.859375"/><stop stop-opacity="1" stop-color="rgb(0.357056%, 53.120422%, 9.153748%)" offset="0.875"/><stop stop-opacity="1" stop-color="rgb(0.315857%, 52.7771%, 8.99353%)" offset="0.890625"/><stop stop-opacity="1" stop-color="rgb(0.273132%, 52.433777%, 8.834839%)" offset="0.90625"/><stop stop-opacity="1" stop-color="rgb(0.230408%, 52.088928%, 8.676147%)" offset="0.921875"/><stop stop-opacity="1" stop-color="rgb(0.189209%, 51.745605%, 8.51593%)" offset="0.9375"/><stop stop-opacity="1" stop-color="rgb(0.146484%, 51.402283%, 8.357239%)" offset="0.953125"/><stop stop-opacity="1" stop-color="rgb(0.10376%, 51.057434%, 8.197021%)" offset="0.96875"/><stop stop-opacity="1" stop-color="rgb(0.062561%, 50.714111%, 8.03833%)" offset="0.984375"/><stop stop-opacity="1" stop-color="rgb(0.0198364%, 50.370789%, 7.878113%)" offset="1"/></linearGradient><clipPath id="5d70c98ec3"><path d="M 5.796875 8 L 117.695312 8 L 117.695312 136 L 5.796875 136 Z M 5.796875 8 " clip-rule="nonzero"/></clipPath><clipPath id="8202b62bcc"><path d="M 68.214844 10.65625 L 111.226562 35.679688 C 115.230469 38.011719 117.695312 42.292969 117.695312 46.925781 L 117.695312 97.0625 C 117.695312 101.699219 115.230469 105.980469 111.226562 108.3125 L 68.214844 133.335938 C 64.214844 135.664062 59.273438 135.664062 55.277344 133.335938 L 12.265625 108.3125 C 8.257812 105.980469 5.796875 101.699219 5.796875 97.0625 L 5.796875 46.925781 C 5.796875 42.292969 8.257812 38.011719 12.265625 35.679688 L 55.277344 10.65625 C 59.273438 8.328125 64.214844 8.328125 68.214844 10.65625 Z M 68.214844 10.65625 " clip-rule="nonzero"/></clipPath><clipPath id="4b59d7a442"><path d="M 31.519531 42.410156 L 92 42.410156 L 92 101.542969 L 31.519531 101.542969 Z M 31.519531 42.410156 " clip-rule="nonzero"/></clipPath></defs><g clip-path="url(#a476f16679)"><g clip-path="url(#b6f98ddf89)"><path fill="url(#d4035bdf0e)" d="M 0 0.144531 L 0 143.855469 L 123.5 143.855469 L 123.5 0.144531 Z M 0 0.144531 " fill-rule="nonzero"/></g></g><g clip-path="url(#1980246f9e)"><g clip-path="url(#975732c764)"><path fill="url(#1dafa49fa8)" d="M 5.796875 8.90625 L 5.796875 135.09375 L 117.703125 135.09375 L 117.703125 8.90625 Z M 5.796875 8.90625 " fill-rule="nonzero"/></g></g><g clip-path="url(#5d70c98ec3)"><g clip-path="url(#8202b62bcc)"><path stroke-linecap="butt" transform="matrix(0.748488, 0, 0, 0.748488, 5.795499, 6.890929)" fill="none" stroke-linejoin="miter" d="M 83.393929 5.03057 L 140.858747 38.462558 C 146.208073 41.578214 149.501171 47.29808 149.501171 53.487643 L 149.501171 120.471652 C 149.501171 126.666434 146.208073 132.386299 140.858747 135.501956 L 83.393929 168.933944 C 78.049821 172.044382 71.447969 172.044382 66.10908 168.933944 L 8.644263 135.501956 C 3.289717 132.386299 0.00183843 126.666434 0.00183843 120.471652 L 0.00183843 53.487643 C 0.00183843 47.29808 3.289717 41.578214 8.644263 38.462558 L 66.10908 5.03057 C 71.447969 1.920132 78.049821 1.920132 83.393929 5.03057 Z M 83.393929 5.03057 " stroke="#000000" stroke-width="8" stroke-opacity="1" stroke-miterlimit="4"/></g></g><g clip-path="url(#4b59d7a442)"><path fill="#ffde59" d="M 61.746094 42.433594 C 45.050781 42.433594 31.519531 55.667969 31.519531 71.992188 C 31.519531 88.316406 45.050781 101.546875 61.746094 101.546875 C 78.4375 101.546875 91.972656 88.316406 91.972656 71.992188 C 91.972656 55.667969 78.4375 42.433594 61.746094 42.433594 Z M 61.769531 44.726562 C 63.941406 44.726562 65.699219 45.414062 65.699219 46.265625 C 65.699219 47.117188 63.941406 47.804688 61.769531 47.804688 C 59.601562 47.804688 57.84375 47.117188 57.84375 46.265625 C 57.84375 45.414062 59.601562 44.726562 61.769531 44.726562 Z M 38.085938 68.792969 C 37.988281 71.238281 37.0625 73.191406 36.015625 73.152344 C 34.972656 73.109375 34.199219 71.09375 34.296875 68.644531 C 34.390625 66.195312 35.316406 64.242188 36.363281 64.285156 C 37.410156 64.324219 38.179688 66.34375 38.085938 68.792969 Z M 45.769531 92.886719 C 45.175781 93.535156 43.300781 92.78125 41.574219 91.207031 C 39.851562 89.632812 38.933594 87.828125 39.527344 87.179688 C 40.121094 86.53125 41.996094 87.285156 43.722656 88.859375 C 45.445312 90.433594 46.363281 92.238281 45.769531 92.886719 Z M 44.734375 53.347656 C 43.101562 55.015625 41.265625 55.867188 40.640625 55.253906 C 40.011719 54.640625 40.828125 52.789062 42.464844 51.121094 C 44.097656 49.453125 45.929688 48.597656 46.558594 49.214844 C 47.183594 49.828125 46.367188 51.679688 44.734375 53.347656 Z M 51.652344 80.566406 C 49.46875 80.566406 47.699219 78.792969 47.699219 76.609375 C 47.699219 74.425781 49.46875 72.65625 51.652344 72.65625 C 53.835938 72.65625 55.605469 74.425781 55.605469 76.609375 C 55.605469 78.792969 53.835938 80.566406 51.652344 80.566406 Z M 58.324219 62.472656 C 58.019531 61.875 57.84375 61.199219 57.84375 60.480469 C 57.84375 58.066406 59.800781 56.109375 62.214844 56.109375 C 64.632812 56.109375 66.589844 58.066406 66.589844 60.480469 C 66.589844 61.855469 65.957031 63.078125 64.964844 63.882812 L 64.921875 63.917969 C 64.175781 64.507812 63.238281 64.855469 62.214844 64.855469 C 60.523438 64.855469 59.054688 63.894531 58.324219 62.484375 L 58.332031 62.476562 C 58.328125 62.476562 58.328125 62.472656 58.324219 62.472656 Z M 62.734375 96.078125 C 60.40625 96.027344 58.539062 95.140625 58.5625 94.09375 C 58.582031 93.050781 60.492188 92.242188 62.820312 92.292969 C 65.148438 92.347656 67.015625 93.234375 66.992188 94.28125 C 66.972656 95.324219 65.066406 96.128906 62.734375 96.078125 Z M 73.734375 80.542969 L 73.734375 80.546875 C 73.609375 80.558594 73.480469 80.566406 73.351562 80.566406 C 71.394531 80.566406 69.753906 79.089844 69.300781 77.097656 L 69.40625 77.070312 L 69.304688 77.097656 C 69.222656 76.742188 69.175781 76.371094 69.175781 75.988281 C 69.175781 73.460938 71.042969 71.410156 73.351562 71.410156 C 75.652344 71.410156 77.523438 73.460938 77.523438 75.988281 C 77.523438 78.375 75.859375 80.332031 73.734375 80.542969 Z M 75.257812 48.746094 C 75.652344 48.1875 77.5 48.816406 79.386719 50.15625 C 81.269531 51.492188 82.472656 53.027344 82.078125 53.585938 C 81.679688 54.144531 79.832031 53.511719 77.949219 52.175781 C 76.066406 50.839844 74.859375 49.304688 75.257812 48.746094 Z M 82.347656 90.316406 C 82.28125 90.390625 82.210938 90.460938 82.144531 90.53125 C 82.144531 90.527344 82.144531 90.527344 82.144531 90.527344 C 82.144531 90.527344 82.144531 90.53125 82.144531 90.53125 L 82.117188 90.558594 C 80.605469 92.121094 79.078125 93.039062 78.632812 92.625 C 78.53125 92.53125 78.492188 92.375 78.511719 92.175781 L 78.519531 92.160156 C 78.597656 91.425781 79.417969 90.078125 80.652344 88.746094 C 82.238281 87.039062 83.898438 86.003906 84.367188 86.4375 C 84.835938 86.875 83.929688 88.609375 82.347656 90.316406 Z M 88.335938 71.410156 C 87.460938 71.5 86.539062 69.570312 86.273438 67.089844 C 86.011719 64.613281 86.503906 62.53125 87.375 62.4375 C 88.25 62.34375 89.171875 64.277344 89.4375 66.753906 C 89.699219 69.230469 89.207031 71.316406 88.335938 71.410156 Z M 88.335938 71.410156 " fill-opacity="1" fill-rule="nonzero"/></g></svg>