<svg xmlns="http://www.w3.org/2000/svg" xmlns:xlink="http://www.w3.org/1999/xlink" width="281" zoomAndPan="magnify" viewBox="0 0 210.75 210.749994" height="281" preserveAspectRatio="xMidYMid meet" version="1.0"><defs><clipPath id="6f64f89569"><path d="M 5.398438 6.242188 L 204.25 6.242188 L 204.25 205.089844 L 5.398438 205.089844 Z M 5.398438 6.242188 " clip-rule="nonzero"/></clipPath><clipPath id="448c07dd9b"><path d="M 104.824219 6.242188 C 49.914062 6.242188 5.398438 50.753906 5.398438 105.664062 C 5.398438 160.574219 49.914062 205.089844 104.824219 205.089844 C 159.734375 205.089844 204.25 160.574219 204.25 105.664062 C 204.25 50.753906 159.734375 6.242188 104.824219 6.242188 Z M 104.824219 6.242188 " clip-rule="nonzero"/></clipPath></defs><g clip-path="url(#6f64f89569)"><g clip-path="url(#448c07dd9b)"><path fill="#ffffff" d="M 5.398438 6.242188 L 204.25 6.242188 L 204.25 205.089844 L 5.398438 205.089844 Z M 5.398438 6.242188 " fill-opacity="1" fill-rule="nonzero"/></g></g><path fill="#f7da06" d="M 29.8125 51.273438 C 0 92.941406 9.605469 150.875 51.273438 180.6875 C 92.941406 210.5 150.875 200.898438 180.6875 159.230469 C 210.5 117.5625 200.898438 59.625 159.230469 29.8125 C 117.5625 0 59.625 9.617188 29.8125 51.273438 Z M 47.976562 91.660156 C 46.199219 97.023438 41.90625 100.566406 37.796875 100.410156 C 34.394531 98.078125 33.066406 92.675781 34.832031 87.3125 C 36.609375 81.953125 40.902344 78.410156 45.015625 78.566406 C 48.414062 80.898438 49.757812 86.300781 47.976562 91.660156 Z M 47.976562 91.660156 " fill-opacity="1" fill-rule="nonzero"/><path fill="#bfa50a" d="M 67.527344 148.097656 C 72.785156 151.863281 74.707031 158.203125 71.808594 162.246094 C 68.910156 166.289062 62.296875 166.527344 57.027344 162.773438 C 51.757812 159.019531 49.847656 152.667969 52.746094 148.625 C 55.644531 144.578125 62.269531 144.328125 67.527344 148.097656 Z M 134.199219 95.296875 C 130.472656 100.515625 131.667969 107.773438 136.886719 111.5 C 142.101562 115.230469 149.363281 114.03125 153.089844 108.8125 C 156.816406 103.597656 155.621094 96.339844 150.402344 92.609375 C 145.1875 88.882812 137.925781 90.082031 134.199219 95.296875 Z M 59.6875 57.976562 C 61.808594 62.640625 68.015625 64.367188 73.5625 61.851562 C 79.105469 59.332031 81.886719 53.511719 79.765625 48.859375 C 77.644531 44.199219 71.441406 42.472656 65.894531 44.988281 C 60.359375 47.492188 57.582031 53.3125 59.6875 57.976562 Z M 22.566406 116.175781 C 20.351562 117.179688 18.484375 121.382812 20.472656 128.613281 C 21.722656 133.171875 26.859375 138.136719 29.074219 137.125 C 31.289062 136.109375 32.378906 129.546875 30.457031 125.226562 C 27.613281 118.8125 24.78125 115.175781 22.566406 116.175781 Z M 48.042969 92.148438 C 47.054688 97.8125 40.746094 103.609375 37.320312 103.042969 C 33.894531 102.476562 31.511719 93.886719 33.488281 88.449219 C 36.621094 79.820312 42.050781 76.945312 45.476562 77.511719 C 48.914062 78.09375 49.519531 83.730469 48.042969 92.148438 Z M 25.726562 67.949219 C 27.175781 68.527344 26.519531 73.601562 24.238281 79.265625 C 21.960938 84.929688 18.945312 89.054688 17.496094 88.472656 C 16.046875 87.894531 16.703125 82.820312 18.984375 77.15625 C 21.25 71.492188 24.277344 67.371094 25.726562 67.949219 Z M 59.164062 30.773438 C 60.152344 31.984375 57.09375 36.09375 52.351562 39.929688 C 47.609375 43.761719 42.957031 45.898438 41.984375 44.683594 C 40.996094 43.472656 44.050781 39.363281 48.792969 35.527344 C 53.539062 31.695312 58.175781 29.5625 59.164062 30.773438 Z M 109.511719 26.902344 C 109.644531 28.785156 104.820312 30.667969 98.734375 31.117188 C 92.648438 31.5625 87.605469 30.390625 87.460938 28.507812 C 87.328125 26.625 92.148438 24.738281 98.234375 24.292969 C 104.335938 23.84375 109.378906 25.015625 109.511719 26.902344 Z M 82.441406 106.246094 C 87.472656 109.839844 88.632812 116.835938 85.035156 121.855469 C 81.4375 126.886719 74.445312 128.046875 69.425781 124.449219 C 64.40625 120.855469 63.234375 113.859375 66.828125 108.839844 C 70.425781 103.820312 77.40625 102.648438 82.441406 106.246094 Z M 120.15625 138.574219 C 125.1875 142.167969 126.347656 149.164062 122.75 154.183594 C 119.15625 159.214844 112.160156 160.375 107.140625 156.777344 C 102.109375 153.183594 100.949219 146.1875 104.546875 141.167969 C 108.140625 136.148438 115.125 134.976562 120.15625 138.574219 Z M 109.589844 68.292969 C 114.625 71.886719 115.78125 78.882812 112.1875 83.902344 C 108.589844 88.921875 101.59375 90.09375 96.574219 86.496094 C 91.554688 82.902344 90.382812 75.90625 93.980469 70.886719 C 97.578125 65.867188 104.558594 64.695312 109.589844 68.292969 Z M 143.382812 44.460938 C 148.414062 48.058594 150.085938 54.316406 147.136719 58.4375 C 144.183594 62.5625 137.714844 62.984375 132.683594 59.386719 C 127.652344 55.789062 125.980469 49.53125 128.929688 45.410156 C 131.878906 41.285156 138.347656 40.863281 143.382812 44.460938 Z M 186.078125 78.910156 C 188.488281 85.234375 187.484375 91.476562 183.835938 92.875 C 180.1875 94.269531 175.273438 90.277344 172.863281 83.957031 C 170.453125 77.632812 171.453125 71.386719 175.101562 69.992188 C 178.753906 68.59375 183.664062 72.585938 186.078125 78.910156 Z M 103.265625 177.222656 C 110 177.882812 115.148438 181.570312 114.769531 185.457031 C 114.386719 189.34375 108.628906 191.964844 101.898438 191.304688 C 95.164062 190.648438 90.015625 186.960938 90.398438 183.074219 C 90.765625 179.1875 96.535156 176.566406 103.265625 177.222656 Z M 169.898438 136.425781 C 173.507812 139.007812 172.730469 146.292969 168.160156 152.679688 C 163.589844 159.070312 156.949219 162.152344 153.339844 159.570312 C 149.730469 156.988281 150.507812 149.703125 155.078125 143.316406 C 159.648438 136.925781 166.289062 133.84375 169.898438 136.425781 Z M 47.808594 172.746094 C 53.011719 177.171875 56.6875 181.414062 56 182.203125 C 55.328125 182.992188 50.558594 180.054688 45.355469 175.617188 C 40.152344 171.191406 36.476562 166.949219 37.164062 166.15625 C 37.835938 165.367188 42.601562 168.320312 47.808594 172.746094 Z M 174.8125 54.589844 C 173.8125 55.617188 168.84375 52.445312 163.722656 47.476562 C 158.582031 42.511719 155.238281 37.664062 156.238281 36.621094 C 157.238281 35.59375 162.207031 38.769531 167.332031 43.734375 C 172.453125 48.703125 175.800781 53.5625 174.8125 54.589844 Z M 174.8125 54.589844 " fill-opacity="1" fill-rule="nonzero"/></svg>