<svg xmlns="http://www.w3.org/2000/svg" xmlns:xlink="http://www.w3.org/1999/xlink" width="264" zoomAndPan="magnify" viewBox="0 0 198 205.499994" height="192" preserveAspectRatio="xMidYMid meet" version="1.0"><defs><clipPath id="18c81267e5"><path d="M 19 33 L 178 33 L 178 171 L 19 171 Z M 19 33 " clip-rule="nonzero"/></clipPath><clipPath id="9d98f17785"><path d="M 77.796875 0 L 197.144531 67.863281 L 119.472656 204.460938 L 0.125 136.597656 Z M 77.796875 0 " clip-rule="nonzero"/></clipPath><clipPath id="255fee4b01"><path d="M 137.472656 33.933594 L 146.453125 74.421875 L 177.753906 101.964844 L 147.0625 129.636719 L 138.976562 170.164062 L 99.300781 157.34375 L 59.910156 170.328125 L 50.929688 129.839844 L 19.628906 102.296875 L 50.320312 74.625 L 58.40625 34.097656 L 98.082031 46.917969 Z M 137.472656 33.933594 " clip-rule="nonzero"/></clipPath><clipPath id="cc336e82a4"><path d="M 36.96875 30.304688 L 160.417969 30.304688 L 160.417969 173.957031 L 36.96875 173.957031 Z M 36.96875 30.304688 " clip-rule="nonzero"/></clipPath><clipPath id="1c34258b57"><path d="M 98.695312 30.304688 L 160.417969 66.21875 L 160.417969 138.042969 L 98.695312 173.957031 L 36.96875 138.042969 L 36.96875 66.21875 Z M 98.695312 30.304688 " clip-rule="nonzero"/></clipPath><linearGradient x1="-0.0000013531" gradientTransform="matrix(0.482225, 0, 0, 0.482225, 36.969025, 30.305563)" y1="148.945007" x2="255.999987" gradientUnits="userSpaceOnUse" y2="148.945007" id="2f841fbafb"><stop stop-opacity="1" stop-color="rgb(2.69928%, 72.198486%, 17.999268%)" offset="0"/><stop stop-opacity="1" stop-color="rgb(2.677917%, 72.026062%, 17.919922%)" offset="0.015625"/><stop stop-opacity="1" stop-color="rgb(2.635193%, 71.682739%, 17.759705%)" offset="0.03125"/><stop stop-opacity="1" stop-color="rgb(2.593994%, 71.339417%, 17.601013%)" offset="0.046875"/><stop stop-opacity="1" stop-color="rgb(2.55127%, 70.996094%, 17.440796%)" offset="0.0625"/><stop stop-opacity="1" stop-color="rgb(2.508545%, 70.651245%, 17.282104%)" offset="0.078125"/><stop stop-opacity="1" stop-color="rgb(2.467346%, 70.307922%, 17.121887%)" offset="0.09375"/><stop stop-opacity="1" stop-color="rgb(2.424622%, 69.9646%, 16.963196%)" offset="0.109375"/><stop stop-opacity="1" stop-color="rgb(2.381897%, 69.621277%, 16.802979%)" offset="0.125"/><stop stop-opacity="1" stop-color="rgb(2.340698%, 69.276428%, 16.644287%)" offset="0.140625"/><stop stop-opacity="1" stop-color="rgb(2.297974%, 68.933105%, 16.485596%)" offset="0.15625"/><stop stop-opacity="1" stop-color="rgb(2.255249%, 68.589783%, 16.325378%)" offset="0.171875"/><stop stop-opacity="1" stop-color="rgb(2.21405%, 68.244934%, 16.166687%)" offset="0.1875"/><stop stop-opacity="1" stop-color="rgb(2.171326%, 67.901611%, 16.00647%)" offset="0.203125"/><stop stop-opacity="1" stop-color="rgb(2.130127%, 67.558289%, 15.847778%)" offset="0.21875"/><stop stop-opacity="1" stop-color="rgb(2.087402%, 67.214966%, 15.687561%)" offset="0.234375"/><stop stop-opacity="1" stop-color="rgb(2.044678%, 66.870117%, 15.52887%)" offset="0.25"/><stop stop-opacity="1" stop-color="rgb(2.003479%, 66.526794%, 15.368652%)" offset="0.265625"/><stop stop-opacity="1" stop-color="rgb(1.960754%, 66.183472%, 15.209961%)" offset="0.28125"/><stop stop-opacity="1" stop-color="rgb(1.91803%, 65.838623%, 15.049744%)" offset="0.296875"/><stop stop-opacity="1" stop-color="rgb(1.876831%, 65.4953%, 14.891052%)" offset="0.3125"/><stop stop-opacity="1" stop-color="rgb(1.834106%, 65.151978%, 14.732361%)" offset="0.328125"/><stop stop-opacity="1" stop-color="rgb(1.791382%, 64.808655%, 14.572144%)" offset="0.34375"/><stop stop-opacity="1" stop-color="rgb(1.750183%, 64.463806%, 14.413452%)" offset="0.359375"/><stop stop-opacity="1" stop-color="rgb(1.707458%, 64.120483%, 14.253235%)" offset="0.375"/><stop stop-opacity="1" stop-color="rgb(1.664734%, 63.777161%, 14.094543%)" offset="0.390625"/><stop stop-opacity="1" stop-color="rgb(1.623535%, 63.432312%, 13.934326%)" offset="0.40625"/><stop stop-opacity="1" stop-color="rgb(1.580811%, 63.088989%, 13.775635%)" offset="0.421875"/><stop stop-opacity="1" stop-color="rgb(1.538086%, 62.745667%, 13.615417%)" offset="0.4375"/><stop stop-opacity="1" stop-color="rgb(1.496887%, 62.402344%, 13.456726%)" offset="0.453125"/><stop stop-opacity="1" stop-color="rgb(1.454163%, 62.057495%, 13.298035%)" offset="0.46875"/><stop stop-opacity="1" stop-color="rgb(1.412964%, 61.714172%, 13.137817%)" offset="0.484375"/><stop stop-opacity="1" stop-color="rgb(1.370239%, 61.37085%, 12.979126%)" offset="0.5"/><stop stop-opacity="1" stop-color="rgb(1.327515%, 61.027527%, 12.818909%)" offset="0.515625"/><stop stop-opacity="1" stop-color="rgb(1.286316%, 60.682678%, 12.660217%)" offset="0.53125"/><stop stop-opacity="1" stop-color="rgb(1.243591%, 60.339355%, 12.5%)" offset="0.546875"/><stop stop-opacity="1" stop-color="rgb(1.200867%, 59.996033%, 12.341309%)" offset="0.5625"/><stop stop-opacity="1" stop-color="rgb(1.159668%, 59.651184%, 12.181091%)" offset="0.578125"/><stop stop-opacity="1" stop-color="rgb(1.116943%, 59.307861%, 12.0224%)" offset="0.59375"/><stop stop-opacity="1" stop-color="rgb(1.074219%, 58.964539%, 11.863708%)" offset="0.609375"/><stop stop-opacity="1" stop-color="rgb(1.03302%, 58.621216%, 11.703491%)" offset="0.625"/><stop stop-opacity="1" stop-color="rgb(0.990295%, 58.276367%, 11.5448%)" offset="0.640625"/><stop stop-opacity="1" stop-color="rgb(0.947571%, 57.933044%, 11.384583%)" offset="0.65625"/><stop stop-opacity="1" stop-color="rgb(0.906372%, 57.589722%, 11.225891%)" offset="0.671875"/><stop stop-opacity="1" stop-color="rgb(0.863647%, 57.244873%, 11.065674%)" offset="0.6875"/><stop stop-opacity="1" stop-color="rgb(0.820923%, 56.90155%, 10.906982%)" offset="0.703125"/><stop stop-opacity="1" stop-color="rgb(0.779724%, 56.558228%, 10.746765%)" offset="0.71875"/><stop stop-opacity="1" stop-color="rgb(0.737%, 56.214905%, 10.588074%)" offset="0.734375"/><stop stop-opacity="1" stop-color="rgb(0.695801%, 55.870056%, 10.427856%)" offset="0.75"/><stop stop-opacity="1" stop-color="rgb(0.653076%, 55.526733%, 10.269165%)" offset="0.765625"/><stop stop-opacity="1" stop-color="rgb(0.610352%, 55.183411%, 10.110474%)" offset="0.78125"/><stop stop-opacity="1" stop-color="rgb(0.569153%, 54.838562%, 9.950256%)" offset="0.796875"/><stop stop-opacity="1" stop-color="rgb(0.526428%, 54.495239%, 9.791565%)" offset="0.8125"/><stop stop-opacity="1" stop-color="rgb(0.483704%, 54.151917%, 9.631348%)" offset="0.828125"/><stop stop-opacity="1" stop-color="rgb(0.442505%, 53.808594%, 9.472656%)" offset="0.84375"/><stop stop-opacity="1" stop-color="rgb(0.39978%, 53.463745%, 9.312439%)" offset="0.859375"/><stop stop-opacity="1" stop-color="rgb(0.357056%, 53.120422%, 9.153748%)" offset="0.875"/><stop stop-opacity="1" stop-color="rgb(0.315857%, 52.7771%, 8.99353%)" offset="0.890625"/><stop stop-opacity="1" stop-color="rgb(0.273132%, 52.433777%, 8.834839%)" offset="0.90625"/><stop stop-opacity="1" stop-color="rgb(0.230408%, 52.088928%, 8.676147%)" offset="0.921875"/><stop stop-opacity="1" stop-color="rgb(0.189209%, 51.745605%, 8.51593%)" offset="0.9375"/><stop stop-opacity="1" stop-color="rgb(0.146484%, 51.402283%, 8.357239%)" offset="0.953125"/><stop stop-opacity="1" stop-color="rgb(0.10376%, 51.057434%, 8.197021%)" offset="0.96875"/><stop stop-opacity="1" stop-color="rgb(0.062561%, 50.714111%, 8.03833%)" offset="0.984375"/><stop stop-opacity="1" stop-color="rgb(0.0198364%, 50.370789%, 7.878113%)" offset="1"/></linearGradient><clipPath id="8af38148a3"><path d="M 42.761719 39.066406 L 154.625 39.066406 L 154.625 165.195312 L 42.761719 165.195312 Z M 42.761719 39.066406 " clip-rule="nonzero"/></clipPath><clipPath id="3d6741fa5f"><path d="M 105.160156 40.808594 L 148.160156 65.828125 C 152.164062 68.15625 154.625 72.4375 154.625 77.070312 L 154.625 127.191406 C 154.625 131.824219 152.164062 136.105469 148.160156 138.433594 L 105.160156 163.453125 C 101.164062 165.777344 96.222656 165.777344 92.226562 163.453125 L 49.230469 138.433594 C 45.226562 136.105469 42.761719 131.824219 42.761719 127.191406 L 42.761719 77.070312 C 42.761719 72.4375 45.226562 68.15625 49.230469 65.828125 L 92.226562 40.808594 C 96.222656 38.484375 101.164062 38.484375 105.160156 40.808594 Z M 105.160156 40.808594 " clip-rule="nonzero"/></clipPath><linearGradient x1="-0.00000268487" gradientTransform="matrix(0.436966, 0, 0, 0.436966, 42.762138, 37.046661)" y1="148.945007" x2="255.999984" gradientUnits="userSpaceOnUse" y2="148.945007" id="2881ed106c"><stop stop-opacity="1" stop-color="rgb(2.69928%, 72.198486%, 17.999268%)" offset="0"/><stop stop-opacity="1" stop-color="rgb(2.677917%, 72.026062%, 17.919922%)" offset="0.015625"/><stop stop-opacity="1" stop-color="rgb(2.635193%, 71.682739%, 17.759705%)" offset="0.03125"/><stop stop-opacity="1" stop-color="rgb(2.593994%, 71.339417%, 17.601013%)" offset="0.046875"/><stop stop-opacity="1" stop-color="rgb(2.55127%, 70.996094%, 17.440796%)" offset="0.0625"/><stop stop-opacity="1" stop-color="rgb(2.508545%, 70.651245%, 17.282104%)" offset="0.078125"/><stop stop-opacity="1" stop-color="rgb(2.467346%, 70.307922%, 17.121887%)" offset="0.09375"/><stop stop-opacity="1" stop-color="rgb(2.424622%, 69.9646%, 16.963196%)" offset="0.109375"/><stop stop-opacity="1" stop-color="rgb(2.381897%, 69.621277%, 16.802979%)" offset="0.125"/><stop stop-opacity="1" stop-color="rgb(2.340698%, 69.276428%, 16.644287%)" offset="0.140625"/><stop stop-opacity="1" stop-color="rgb(2.297974%, 68.933105%, 16.485596%)" offset="0.15625"/><stop stop-opacity="1" stop-color="rgb(2.255249%, 68.589783%, 16.325378%)" offset="0.171875"/><stop stop-opacity="1" stop-color="rgb(2.21405%, 68.244934%, 16.166687%)" offset="0.1875"/><stop stop-opacity="1" stop-color="rgb(2.171326%, 67.901611%, 16.00647%)" offset="0.203125"/><stop stop-opacity="1" stop-color="rgb(2.130127%, 67.558289%, 15.847778%)" offset="0.21875"/><stop stop-opacity="1" stop-color="rgb(2.087402%, 67.214966%, 15.687561%)" offset="0.234375"/><stop stop-opacity="1" stop-color="rgb(2.044678%, 66.870117%, 15.52887%)" offset="0.25"/><stop stop-opacity="1" stop-color="rgb(2.003479%, 66.526794%, 15.368652%)" offset="0.265625"/><stop stop-opacity="1" stop-color="rgb(1.960754%, 66.183472%, 15.209961%)" offset="0.28125"/><stop stop-opacity="1" stop-color="rgb(1.91803%, 65.838623%, 15.049744%)" offset="0.296875"/><stop stop-opacity="1" stop-color="rgb(1.876831%, 65.4953%, 14.891052%)" offset="0.3125"/><stop stop-opacity="1" stop-color="rgb(1.834106%, 65.151978%, 14.732361%)" offset="0.328125"/><stop stop-opacity="1" stop-color="rgb(1.791382%, 64.808655%, 14.572144%)" offset="0.34375"/><stop stop-opacity="1" stop-color="rgb(1.750183%, 64.463806%, 14.413452%)" offset="0.359375"/><stop stop-opacity="1" stop-color="rgb(1.707458%, 64.120483%, 14.253235%)" offset="0.375"/><stop stop-opacity="1" stop-color="rgb(1.664734%, 63.777161%, 14.094543%)" offset="0.390625"/><stop stop-opacity="1" stop-color="rgb(1.623535%, 63.432312%, 13.934326%)" offset="0.40625"/><stop stop-opacity="1" stop-color="rgb(1.580811%, 63.088989%, 13.775635%)" offset="0.421875"/><stop stop-opacity="1" stop-color="rgb(1.538086%, 62.745667%, 13.615417%)" offset="0.4375"/><stop stop-opacity="1" stop-color="rgb(1.496887%, 62.402344%, 13.456726%)" offset="0.453125"/><stop stop-opacity="1" stop-color="rgb(1.454163%, 62.057495%, 13.298035%)" offset="0.46875"/><stop stop-opacity="1" stop-color="rgb(1.412964%, 61.714172%, 13.137817%)" offset="0.484375"/><stop stop-opacity="1" stop-color="rgb(1.370239%, 61.37085%, 12.979126%)" offset="0.5"/><stop stop-opacity="1" stop-color="rgb(1.327515%, 61.027527%, 12.818909%)" offset="0.515625"/><stop stop-opacity="1" stop-color="rgb(1.286316%, 60.682678%, 12.660217%)" offset="0.53125"/><stop stop-opacity="1" stop-color="rgb(1.243591%, 60.339355%, 12.5%)" offset="0.546875"/><stop stop-opacity="1" stop-color="rgb(1.200867%, 59.996033%, 12.341309%)" offset="0.5625"/><stop stop-opacity="1" stop-color="rgb(1.159668%, 59.651184%, 12.181091%)" offset="0.578125"/><stop stop-opacity="1" stop-color="rgb(1.116943%, 59.307861%, 12.0224%)" offset="0.59375"/><stop stop-opacity="1" stop-color="rgb(1.074219%, 58.964539%, 11.863708%)" offset="0.609375"/><stop stop-opacity="1" stop-color="rgb(1.03302%, 58.621216%, 11.703491%)" offset="0.625"/><stop stop-opacity="1" stop-color="rgb(0.990295%, 58.276367%, 11.5448%)" offset="0.640625"/><stop stop-opacity="1" stop-color="rgb(0.947571%, 57.933044%, 11.384583%)" offset="0.65625"/><stop stop-opacity="1" stop-color="rgb(0.906372%, 57.589722%, 11.225891%)" offset="0.671875"/><stop stop-opacity="1" stop-color="rgb(0.863647%, 57.244873%, 11.065674%)" offset="0.6875"/><stop stop-opacity="1" stop-color="rgb(0.820923%, 56.90155%, 10.906982%)" offset="0.703125"/><stop stop-opacity="1" stop-color="rgb(0.779724%, 56.558228%, 10.746765%)" offset="0.71875"/><stop stop-opacity="1" stop-color="rgb(0.737%, 56.214905%, 10.588074%)" offset="0.734375"/><stop stop-opacity="1" stop-color="rgb(0.695801%, 55.870056%, 10.427856%)" offset="0.75"/><stop stop-opacity="1" stop-color="rgb(0.653076%, 55.526733%, 10.269165%)" offset="0.765625"/><stop stop-opacity="1" stop-color="rgb(0.610352%, 55.183411%, 10.110474%)" offset="0.78125"/><stop stop-opacity="1" stop-color="rgb(0.569153%, 54.838562%, 9.950256%)" offset="0.796875"/><stop stop-opacity="1" stop-color="rgb(0.526428%, 54.495239%, 9.791565%)" offset="0.8125"/><stop stop-opacity="1" stop-color="rgb(0.483704%, 54.151917%, 9.631348%)" offset="0.828125"/><stop stop-opacity="1" stop-color="rgb(0.442505%, 53.808594%, 9.472656%)" offset="0.84375"/><stop stop-opacity="1" stop-color="rgb(0.39978%, 53.463745%, 9.312439%)" offset="0.859375"/><stop stop-opacity="1" stop-color="rgb(0.357056%, 53.120422%, 9.153748%)" offset="0.875"/><stop stop-opacity="1" stop-color="rgb(0.315857%, 52.7771%, 8.99353%)" offset="0.890625"/><stop stop-opacity="1" stop-color="rgb(0.273132%, 52.433777%, 8.834839%)" offset="0.90625"/><stop stop-opacity="1" stop-color="rgb(0.230408%, 52.088928%, 8.676147%)" offset="0.921875"/><stop stop-opacity="1" stop-color="rgb(0.189209%, 51.745605%, 8.51593%)" offset="0.9375"/><stop stop-opacity="1" stop-color="rgb(0.146484%, 51.402283%, 8.357239%)" offset="0.953125"/><stop stop-opacity="1" stop-color="rgb(0.10376%, 51.057434%, 8.197021%)" offset="0.96875"/><stop stop-opacity="1" stop-color="rgb(0.062561%, 50.714111%, 8.03833%)" offset="0.984375"/><stop stop-opacity="1" stop-color="rgb(0.0198364%, 50.370789%, 7.878113%)" offset="1"/></linearGradient><clipPath id="102296a7ca"><path d="M 42.761719 39 L 154.613281 39 L 154.613281 166 L 42.761719 166 Z M 42.761719 39 " clip-rule="nonzero"/></clipPath><clipPath id="780df8fee1"><path d="M 105.15625 40.8125 L 148.148438 65.824219 C 152.152344 68.15625 154.613281 72.4375 154.613281 77.070312 L 154.613281 127.183594 C 154.613281 131.816406 152.152344 136.097656 148.148438 138.429688 L 105.15625 163.441406 C 101.15625 165.769531 96.21875 165.769531 92.222656 163.441406 L 49.226562 138.429688 C 45.226562 136.097656 42.761719 131.816406 42.761719 127.183594 L 42.761719 77.070312 C 42.761719 72.4375 45.226562 68.15625 49.226562 65.824219 L 92.222656 40.8125 C 96.21875 38.484375 101.15625 38.484375 105.15625 40.8125 Z M 105.15625 40.8125 " clip-rule="nonzero"/></clipPath><clipPath id="6cd4abfd25"><path d="M 68.476562 72.554688 L 129 72.554688 L 129 131.660156 L 68.476562 131.660156 Z M 68.476562 72.554688 " clip-rule="nonzero"/></clipPath></defs><g clip-path="url(#18c81267e5)"><g clip-path="url(#9d98f17785)"><g clip-path="url(#255fee4b01)"><path fill="#04a324" d="M 77.796875 0 L 197.144531 67.863281 L 119.472656 204.460938 L 0.125 136.597656 Z M 77.796875 0 " fill-opacity="1" fill-rule="nonzero"/></g></g></g><g clip-path="url(#cc336e82a4)"><g clip-path="url(#1c34258b57)"><path fill="url(#2f841fbafb)" d="M 36.96875 30.304688 L 36.96875 173.957031 L 160.417969 173.957031 L 160.417969 30.304688 Z M 36.96875 30.304688 " fill-rule="nonzero"/></g></g><g clip-path="url(#8af38148a3)"><g clip-path="url(#3d6741fa5f)"><path fill="url(#2881ed106c)" d="M 42.761719 39.066406 L 42.761719 165.195312 L 154.625 165.195312 L 154.625 39.066406 Z M 42.761719 39.066406 " fill-rule="nonzero"/></g></g><g clip-path="url(#102296a7ca)"><g clip-path="url(#780df8fee1)"><path stroke-linecap="butt" transform="matrix(0.74818, 0, 0, 0.74818, 42.762137, 37.048642)" fill="none" stroke-linejoin="miter" d="M 83.39457 5.030688 L 140.856963 38.460789 C 146.208494 41.57773 149.497728 47.299952 149.497728 53.492066 L 149.497728 120.472352 C 149.497728 126.664465 146.208494 132.386688 140.856963 135.503629 L 83.39457 168.93373 C 78.04826 172.04545 71.448908 172.04545 66.107819 168.93373 L 8.640206 135.503629 C 3.293895 132.386688 -0.000559361 126.664465 -0.000559361 120.472352 L -0.000559361 53.492066 C -0.000559361 47.299952 3.293895 41.57773 8.640206 38.460789 L 66.107819 5.030688 C 71.448908 1.918968 78.04826 1.918968 83.39457 5.030688 Z M 83.39457 5.030688 " stroke="#000000" stroke-width="8" stroke-opacity="1" stroke-miterlimit="4"/></g></g><g clip-path="url(#6cd4abfd25)"><path fill="#ffde59" d="M 98.6875 72.578125 C 82.003906 72.578125 68.476562 85.804688 68.476562 102.121094 C 68.476562 118.441406 82.003906 131.667969 98.6875 131.667969 C 115.375 131.667969 128.902344 118.441406 128.902344 102.121094 C 128.902344 85.804688 115.375 72.578125 98.6875 72.578125 Z M 98.714844 74.867188 C 100.882812 74.867188 102.640625 75.558594 102.640625 76.40625 C 102.640625 77.257812 100.882812 77.945312 98.714844 77.945312 C 96.546875 77.945312 94.789062 77.257812 94.789062 76.40625 C 94.789062 75.558594 96.546875 74.867188 98.714844 74.867188 Z M 75.039062 98.921875 C 74.941406 101.371094 74.015625 103.320312 72.972656 103.28125 C 71.925781 103.242188 71.15625 101.222656 71.25 98.777344 C 71.347656 96.328125 72.269531 94.375 73.316406 94.417969 C 74.363281 94.457031 75.132812 96.476562 75.039062 98.921875 Z M 82.71875 123.007812 C 82.128906 123.65625 80.25 122.902344 78.527344 121.328125 C 76.804688 119.753906 75.886719 117.953125 76.480469 117.304688 C 77.070312 116.65625 78.949219 117.410156 80.671875 118.984375 C 82.394531 120.558594 83.3125 122.359375 82.71875 123.007812 Z M 81.683594 83.484375 C 80.050781 85.152344 78.21875 86.007812 77.59375 85.390625 C 76.964844 84.777344 77.78125 82.929688 79.414062 81.261719 C 81.046875 79.59375 82.882812 78.738281 83.507812 79.355469 C 84.136719 79.96875 83.320312 81.816406 81.683594 83.484375 Z M 88.601562 110.691406 C 86.417969 110.691406 84.648438 108.921875 84.648438 106.738281 C 84.648438 104.558594 86.417969 102.789062 88.601562 102.789062 C 90.78125 102.789062 92.550781 104.558594 92.550781 106.738281 C 92.550781 108.921875 90.78125 110.691406 88.601562 110.691406 Z M 95.269531 92.609375 C 94.964844 92.011719 94.789062 91.335938 94.789062 90.617188 C 94.789062 88.203125 96.746094 86.246094 99.160156 86.246094 C 101.574219 86.246094 103.53125 88.203125 103.53125 90.617188 C 103.53125 91.992188 102.898438 93.214844 101.910156 94.015625 C 101.910156 94.015625 101.910156 94.015625 101.910156 94.019531 L 101.863281 94.054688 C 101.121094 94.640625 100.179688 94.988281 99.160156 94.988281 C 97.464844 94.988281 95.996094 94.027344 95.269531 92.621094 L 95.277344 92.609375 C 95.273438 92.609375 95.273438 92.609375 95.269531 92.609375 Z M 99.679688 126.199219 C 97.351562 126.148438 95.484375 125.261719 95.503906 124.214844 C 95.527344 123.171875 97.433594 122.367188 99.761719 122.417969 C 102.089844 122.46875 103.957031 123.355469 103.933594 124.402344 C 103.914062 125.445312 102.007812 126.25 99.679688 126.199219 Z M 110.671875 110.671875 C 110.546875 110.6875 110.417969 110.691406 110.289062 110.691406 C 108.332031 110.691406 106.691406 109.21875 106.242188 107.226562 L 106.347656 107.199219 L 106.246094 107.226562 C 106.164062 106.871094 106.117188 106.5 106.117188 106.117188 C 106.117188 103.589844 107.984375 101.542969 110.289062 101.542969 C 112.59375 101.542969 114.460938 103.589844 114.460938 106.117188 C 114.460938 108.5 112.796875 110.457031 110.671875 110.671875 Z M 112.195312 78.886719 C 112.589844 78.328125 114.4375 78.957031 116.320312 80.292969 C 118.203125 81.632812 119.40625 83.167969 119.011719 83.726562 C 118.617188 84.28125 116.769531 83.652344 114.886719 82.316406 C 113.003906 80.980469 111.800781 79.441406 112.195312 78.886719 Z M 119.28125 120.441406 C 119.214844 120.515625 119.148438 120.582031 119.078125 120.652344 C 119.078125 120.652344 119.078125 120.652344 119.078125 120.648438 C 119.078125 120.652344 119.078125 120.652344 119.078125 120.65625 L 119.054688 120.683594 C 117.542969 122.242188 116.011719 123.160156 115.566406 122.746094 C 115.46875 122.652344 115.429688 122.5 115.449219 122.296875 L 115.453125 122.28125 C 115.535156 121.546875 116.351562 120.203125 117.589844 118.871094 C 119.171875 117.164062 120.835938 116.128906 121.300781 116.5625 C 121.769531 117 120.867188 118.734375 119.28125 120.441406 Z M 125.265625 101.539062 C 124.394531 101.632812 123.472656 99.699219 123.207031 97.226562 C 122.945312 94.75 123.4375 92.664062 124.308594 92.570312 C 125.183594 92.480469 126.105469 94.410156 126.367188 96.886719 C 126.632812 99.363281 126.140625 101.445312 125.265625 101.539062 Z M 125.265625 101.539062 " fill-opacity="1" fill-rule="nonzero"/></g></svg>