<svg xmlns="http://www.w3.org/2000/svg" xmlns:xlink="http://www.w3.org/1999/xlink" width="212" zoomAndPan="magnify" viewBox="0 0 159 159.000002" height="212" preserveAspectRatio="xMidYMid meet" version="1.0"><defs><clipPath id="6aba3ded14"><path d="M 0.496094 0 L 158.128906 0 L 158.128906 157.632812 L 0.496094 157.632812 Z M 0.496094 0 " clip-rule="nonzero"/></clipPath><clipPath id="b14562ff7f"><path d="M 79.3125 0 L 94.613281 21.71875 L 118.722656 10.558594 L 121.113281 37.019531 L 147.570312 39.410156 L 136.410156 63.515625 L 158.128906 78.816406 L 136.410156 94.117188 L 147.570312 118.226562 L 121.113281 120.617188 L 118.722656 147.074219 L 94.613281 135.914062 L 79.3125 157.632812 L 64.015625 135.914062 L 39.90625 147.074219 L 37.515625 120.617188 L 11.054688 118.226562 L 22.214844 94.117188 L 0.496094 78.816406 L 22.214844 63.515625 L 11.054688 39.410156 L 37.515625 37.019531 L 39.90625 10.558594 L 64.015625 21.71875 Z M 79.3125 0 " clip-rule="nonzero"/></clipPath><linearGradient x1="-0" gradientTransform="matrix(0.615756, 0, 0, 0.615756, 0.496874, 0.00000695625)" y1="128" x2="255.999987" gradientUnits="userSpaceOnUse" y2="128" id="6eab645239"><stop stop-opacity="1" stop-color="rgb(2.69928%, 72.198486%, 17.999268%)" offset="0"/><stop stop-opacity="1" stop-color="rgb(2.677917%, 72.026062%, 17.919922%)" offset="0.015625"/><stop stop-opacity="1" stop-color="rgb(2.635193%, 71.682739%, 17.759705%)" offset="0.03125"/><stop stop-opacity="1" stop-color="rgb(2.593994%, 71.339417%, 17.601013%)" offset="0.046875"/><stop stop-opacity="1" stop-color="rgb(2.55127%, 70.996094%, 17.440796%)" offset="0.0625"/><stop stop-opacity="1" stop-color="rgb(2.508545%, 70.651245%, 17.282104%)" offset="0.078125"/><stop stop-opacity="1" stop-color="rgb(2.467346%, 70.307922%, 17.121887%)" offset="0.09375"/><stop stop-opacity="1" stop-color="rgb(2.424622%, 69.9646%, 16.963196%)" offset="0.109375"/><stop stop-opacity="1" stop-color="rgb(2.381897%, 69.621277%, 16.802979%)" offset="0.125"/><stop stop-opacity="1" stop-color="rgb(2.340698%, 69.276428%, 16.644287%)" offset="0.140625"/><stop stop-opacity="1" stop-color="rgb(2.297974%, 68.933105%, 16.485596%)" offset="0.15625"/><stop stop-opacity="1" stop-color="rgb(2.255249%, 68.589783%, 16.325378%)" offset="0.171875"/><stop stop-opacity="1" stop-color="rgb(2.21405%, 68.244934%, 16.166687%)" offset="0.1875"/><stop stop-opacity="1" stop-color="rgb(2.171326%, 67.901611%, 16.00647%)" offset="0.203125"/><stop stop-opacity="1" stop-color="rgb(2.130127%, 67.558289%, 15.847778%)" offset="0.21875"/><stop stop-opacity="1" stop-color="rgb(2.087402%, 67.214966%, 15.687561%)" offset="0.234375"/><stop stop-opacity="1" stop-color="rgb(2.044678%, 66.870117%, 15.52887%)" offset="0.25"/><stop stop-opacity="1" stop-color="rgb(2.003479%, 66.526794%, 15.368652%)" offset="0.265625"/><stop stop-opacity="1" stop-color="rgb(1.960754%, 66.183472%, 15.209961%)" offset="0.28125"/><stop stop-opacity="1" stop-color="rgb(1.91803%, 65.838623%, 15.049744%)" offset="0.296875"/><stop stop-opacity="1" stop-color="rgb(1.876831%, 65.4953%, 14.891052%)" offset="0.3125"/><stop stop-opacity="1" stop-color="rgb(1.834106%, 65.151978%, 14.732361%)" offset="0.328125"/><stop stop-opacity="1" stop-color="rgb(1.791382%, 64.808655%, 14.572144%)" offset="0.34375"/><stop stop-opacity="1" stop-color="rgb(1.750183%, 64.463806%, 14.413452%)" offset="0.359375"/><stop stop-opacity="1" stop-color="rgb(1.707458%, 64.120483%, 14.253235%)" offset="0.375"/><stop stop-opacity="1" stop-color="rgb(1.664734%, 63.777161%, 14.094543%)" offset="0.390625"/><stop stop-opacity="1" stop-color="rgb(1.623535%, 63.432312%, 13.934326%)" offset="0.40625"/><stop stop-opacity="1" stop-color="rgb(1.580811%, 63.088989%, 13.775635%)" offset="0.421875"/><stop stop-opacity="1" stop-color="rgb(1.538086%, 62.745667%, 13.615417%)" offset="0.4375"/><stop stop-opacity="1" stop-color="rgb(1.496887%, 62.402344%, 13.456726%)" offset="0.453125"/><stop stop-opacity="1" stop-color="rgb(1.454163%, 62.057495%, 13.298035%)" offset="0.46875"/><stop stop-opacity="1" stop-color="rgb(1.412964%, 61.714172%, 13.137817%)" offset="0.484375"/><stop stop-opacity="1" stop-color="rgb(1.370239%, 61.37085%, 12.979126%)" offset="0.5"/><stop stop-opacity="1" stop-color="rgb(1.327515%, 61.027527%, 12.818909%)" offset="0.515625"/><stop stop-opacity="1" stop-color="rgb(1.286316%, 60.682678%, 12.660217%)" offset="0.53125"/><stop stop-opacity="1" stop-color="rgb(1.243591%, 60.339355%, 12.5%)" offset="0.546875"/><stop stop-opacity="1" stop-color="rgb(1.200867%, 59.996033%, 12.341309%)" offset="0.5625"/><stop stop-opacity="1" stop-color="rgb(1.159668%, 59.651184%, 12.181091%)" offset="0.578125"/><stop stop-opacity="1" stop-color="rgb(1.116943%, 59.307861%, 12.0224%)" offset="0.59375"/><stop stop-opacity="1" stop-color="rgb(1.074219%, 58.964539%, 11.863708%)" offset="0.609375"/><stop stop-opacity="1" stop-color="rgb(1.03302%, 58.621216%, 11.703491%)" offset="0.625"/><stop stop-opacity="1" stop-color="rgb(0.990295%, 58.276367%, 11.5448%)" offset="0.640625"/><stop stop-opacity="1" stop-color="rgb(0.947571%, 57.933044%, 11.384583%)" offset="0.65625"/><stop stop-opacity="1" stop-color="rgb(0.906372%, 57.589722%, 11.225891%)" offset="0.671875"/><stop stop-opacity="1" stop-color="rgb(0.863647%, 57.244873%, 11.065674%)" offset="0.6875"/><stop stop-opacity="1" stop-color="rgb(0.820923%, 56.90155%, 10.906982%)" offset="0.703125"/><stop stop-opacity="1" stop-color="rgb(0.779724%, 56.558228%, 10.746765%)" offset="0.71875"/><stop stop-opacity="1" stop-color="rgb(0.737%, 56.214905%, 10.588074%)" offset="0.734375"/><stop stop-opacity="1" stop-color="rgb(0.695801%, 55.870056%, 10.427856%)" offset="0.75"/><stop stop-opacity="1" stop-color="rgb(0.653076%, 55.526733%, 10.269165%)" offset="0.765625"/><stop stop-opacity="1" stop-color="rgb(0.610352%, 55.183411%, 10.110474%)" offset="0.78125"/><stop stop-opacity="1" stop-color="rgb(0.569153%, 54.838562%, 9.950256%)" offset="0.796875"/><stop stop-opacity="1" stop-color="rgb(0.526428%, 54.495239%, 9.791565%)" offset="0.8125"/><stop stop-opacity="1" stop-color="rgb(0.483704%, 54.151917%, 9.631348%)" offset="0.828125"/><stop stop-opacity="1" stop-color="rgb(0.442505%, 53.808594%, 9.472656%)" offset="0.84375"/><stop stop-opacity="1" stop-color="rgb(0.39978%, 53.463745%, 9.312439%)" offset="0.859375"/><stop stop-opacity="1" stop-color="rgb(0.357056%, 53.120422%, 9.153748%)" offset="0.875"/><stop stop-opacity="1" stop-color="rgb(0.315857%, 52.7771%, 8.99353%)" offset="0.890625"/><stop stop-opacity="1" stop-color="rgb(0.273132%, 52.433777%, 8.834839%)" offset="0.90625"/><stop stop-opacity="1" stop-color="rgb(0.230408%, 52.088928%, 8.676147%)" offset="0.921875"/><stop stop-opacity="1" stop-color="rgb(0.189209%, 51.745605%, 8.51593%)" offset="0.9375"/><stop stop-opacity="1" stop-color="rgb(0.146484%, 51.402283%, 8.357239%)" offset="0.953125"/><stop stop-opacity="1" stop-color="rgb(0.10376%, 51.057434%, 8.197021%)" offset="0.96875"/><stop stop-opacity="1" stop-color="rgb(0.062561%, 50.714111%, 8.03833%)" offset="0.984375"/><stop stop-opacity="1" stop-color="rgb(0.0198364%, 50.370789%, 7.878113%)" offset="1"/></linearGradient><clipPath id="1de55248fa"><path d="M 17.824219 7.265625 L 140.800781 7.265625 L 140.800781 150.367188 L 17.824219 150.367188 Z M 17.824219 7.265625 " clip-rule="nonzero"/></clipPath><clipPath id="7cefb60baa"><path d="M 79.3125 7.265625 L 140.800781 43.042969 L 140.800781 114.59375 L 79.3125 150.367188 L 17.824219 114.59375 L 17.824219 43.042969 Z M 79.3125 7.265625 " clip-rule="nonzero"/></clipPath><linearGradient x1="-0.00000150303" gradientTransform="matrix(0.480377, 0, 0, 0.480377, 17.82539, 7.266712)" y1="148.945007" x2="255.999987" gradientUnits="userSpaceOnUse" y2="148.945007" id="3b443beeba"><stop stop-opacity="1" stop-color="rgb(2.69928%, 72.198486%, 17.999268%)" offset="0"/><stop stop-opacity="1" stop-color="rgb(2.677917%, 72.026062%, 17.919922%)" offset="0.015625"/><stop stop-opacity="1" stop-color="rgb(2.635193%, 71.682739%, 17.759705%)" offset="0.03125"/><stop stop-opacity="1" stop-color="rgb(2.593994%, 71.339417%, 17.601013%)" offset="0.046875"/><stop stop-opacity="1" stop-color="rgb(2.55127%, 70.996094%, 17.440796%)" offset="0.0625"/><stop stop-opacity="1" stop-color="rgb(2.508545%, 70.651245%, 17.282104%)" offset="0.078125"/><stop stop-opacity="1" stop-color="rgb(2.467346%, 70.307922%, 17.121887%)" offset="0.09375"/><stop stop-opacity="1" stop-color="rgb(2.424622%, 69.9646%, 16.963196%)" offset="0.109375"/><stop stop-opacity="1" stop-color="rgb(2.381897%, 69.621277%, 16.802979%)" offset="0.125"/><stop stop-opacity="1" stop-color="rgb(2.340698%, 69.276428%, 16.644287%)" offset="0.140625"/><stop stop-opacity="1" stop-color="rgb(2.297974%, 68.933105%, 16.485596%)" offset="0.15625"/><stop stop-opacity="1" stop-color="rgb(2.255249%, 68.589783%, 16.325378%)" offset="0.171875"/><stop stop-opacity="1" stop-color="rgb(2.21405%, 68.244934%, 16.166687%)" offset="0.1875"/><stop stop-opacity="1" stop-color="rgb(2.171326%, 67.901611%, 16.00647%)" offset="0.203125"/><stop stop-opacity="1" stop-color="rgb(2.130127%, 67.558289%, 15.847778%)" offset="0.21875"/><stop stop-opacity="1" stop-color="rgb(2.087402%, 67.214966%, 15.687561%)" offset="0.234375"/><stop stop-opacity="1" stop-color="rgb(2.044678%, 66.870117%, 15.52887%)" offset="0.25"/><stop stop-opacity="1" stop-color="rgb(2.003479%, 66.526794%, 15.368652%)" offset="0.265625"/><stop stop-opacity="1" stop-color="rgb(1.960754%, 66.183472%, 15.209961%)" offset="0.28125"/><stop stop-opacity="1" stop-color="rgb(1.91803%, 65.838623%, 15.049744%)" offset="0.296875"/><stop stop-opacity="1" stop-color="rgb(1.876831%, 65.4953%, 14.891052%)" offset="0.3125"/><stop stop-opacity="1" stop-color="rgb(1.834106%, 65.151978%, 14.732361%)" offset="0.328125"/><stop stop-opacity="1" stop-color="rgb(1.791382%, 64.808655%, 14.572144%)" offset="0.34375"/><stop stop-opacity="1" stop-color="rgb(1.750183%, 64.463806%, 14.413452%)" offset="0.359375"/><stop stop-opacity="1" stop-color="rgb(1.707458%, 64.120483%, 14.253235%)" offset="0.375"/><stop stop-opacity="1" stop-color="rgb(1.664734%, 63.777161%, 14.094543%)" offset="0.390625"/><stop stop-opacity="1" stop-color="rgb(1.623535%, 63.432312%, 13.934326%)" offset="0.40625"/><stop stop-opacity="1" stop-color="rgb(1.580811%, 63.088989%, 13.775635%)" offset="0.421875"/><stop stop-opacity="1" stop-color="rgb(1.538086%, 62.745667%, 13.615417%)" offset="0.4375"/><stop stop-opacity="1" stop-color="rgb(1.496887%, 62.402344%, 13.456726%)" offset="0.453125"/><stop stop-opacity="1" stop-color="rgb(1.454163%, 62.057495%, 13.298035%)" offset="0.46875"/><stop stop-opacity="1" stop-color="rgb(1.412964%, 61.714172%, 13.137817%)" offset="0.484375"/><stop stop-opacity="1" stop-color="rgb(1.370239%, 61.37085%, 12.979126%)" offset="0.5"/><stop stop-opacity="1" stop-color="rgb(1.327515%, 61.027527%, 12.818909%)" offset="0.515625"/><stop stop-opacity="1" stop-color="rgb(1.286316%, 60.682678%, 12.660217%)" offset="0.53125"/><stop stop-opacity="1" stop-color="rgb(1.243591%, 60.339355%, 12.5%)" offset="0.546875"/><stop stop-opacity="1" stop-color="rgb(1.200867%, 59.996033%, 12.341309%)" offset="0.5625"/><stop stop-opacity="1" stop-color="rgb(1.159668%, 59.651184%, 12.181091%)" offset="0.578125"/><stop stop-opacity="1" stop-color="rgb(1.116943%, 59.307861%, 12.0224%)" offset="0.59375"/><stop stop-opacity="1" stop-color="rgb(1.074219%, 58.964539%, 11.863708%)" offset="0.609375"/><stop stop-opacity="1" stop-color="rgb(1.03302%, 58.621216%, 11.703491%)" offset="0.625"/><stop stop-opacity="1" stop-color="rgb(0.990295%, 58.276367%, 11.5448%)" offset="0.640625"/><stop stop-opacity="1" stop-color="rgb(0.947571%, 57.933044%, 11.384583%)" offset="0.65625"/><stop stop-opacity="1" stop-color="rgb(0.906372%, 57.589722%, 11.225891%)" offset="0.671875"/><stop stop-opacity="1" stop-color="rgb(0.863647%, 57.244873%, 11.065674%)" offset="0.6875"/><stop stop-opacity="1" stop-color="rgb(0.820923%, 56.90155%, 10.906982%)" offset="0.703125"/><stop stop-opacity="1" stop-color="rgb(0.779724%, 56.558228%, 10.746765%)" offset="0.71875"/><stop stop-opacity="1" stop-color="rgb(0.737%, 56.214905%, 10.588074%)" offset="0.734375"/><stop stop-opacity="1" stop-color="rgb(0.695801%, 55.870056%, 10.427856%)" offset="0.75"/><stop stop-opacity="1" stop-color="rgb(0.653076%, 55.526733%, 10.269165%)" offset="0.765625"/><stop stop-opacity="1" stop-color="rgb(0.610352%, 55.183411%, 10.110474%)" offset="0.78125"/><stop stop-opacity="1" stop-color="rgb(0.569153%, 54.838562%, 9.950256%)" offset="0.796875"/><stop stop-opacity="1" stop-color="rgb(0.526428%, 54.495239%, 9.791565%)" offset="0.8125"/><stop stop-opacity="1" stop-color="rgb(0.483704%, 54.151917%, 9.631348%)" offset="0.828125"/><stop stop-opacity="1" stop-color="rgb(0.442505%, 53.808594%, 9.472656%)" offset="0.84375"/><stop stop-opacity="1" stop-color="rgb(0.39978%, 53.463745%, 9.312439%)" offset="0.859375"/><stop stop-opacity="1" stop-color="rgb(0.357056%, 53.120422%, 9.153748%)" offset="0.875"/><stop stop-opacity="1" stop-color="rgb(0.315857%, 52.7771%, 8.99353%)" offset="0.890625"/><stop stop-opacity="1" stop-color="rgb(0.273132%, 52.433777%, 8.834839%)" offset="0.90625"/><stop stop-opacity="1" stop-color="rgb(0.230408%, 52.088928%, 8.676147%)" offset="0.921875"/><stop stop-opacity="1" stop-color="rgb(0.189209%, 51.745605%, 8.51593%)" offset="0.9375"/><stop stop-opacity="1" stop-color="rgb(0.146484%, 51.402283%, 8.357239%)" offset="0.953125"/><stop stop-opacity="1" stop-color="rgb(0.10376%, 51.057434%, 8.197021%)" offset="0.96875"/><stop stop-opacity="1" stop-color="rgb(0.062561%, 50.714111%, 8.03833%)" offset="0.984375"/><stop stop-opacity="1" stop-color="rgb(0.0198364%, 50.370789%, 7.878113%)" offset="1"/></linearGradient><clipPath id="5d463a9301"><path d="M 23.597656 15.992188 L 135.03125 15.992188 L 135.03125 141.640625 L 23.597656 141.640625 Z M 23.597656 15.992188 " clip-rule="nonzero"/></clipPath><clipPath id="f8c80ca95c"><path d="M 85.753906 17.730469 L 128.589844 42.652344 C 132.578125 44.972656 135.03125 49.238281 135.03125 53.851562 L 135.03125 103.78125 C 135.03125 108.394531 132.578125 112.660156 128.589844 114.980469 L 85.753906 139.902344 C 81.773438 142.21875 76.855469 142.21875 72.871094 139.902344 L 30.039062 114.980469 C 26.050781 112.660156 23.597656 108.394531 23.597656 103.78125 L 23.597656 53.851562 C 23.597656 49.238281 26.050781 44.972656 30.039062 42.652344 L 72.871094 17.730469 C 76.855469 15.414062 81.773438 15.414062 85.753906 17.730469 Z M 85.753906 17.730469 " clip-rule="nonzero"/></clipPath><linearGradient x1="0.00000080239" gradientTransform="matrix(0.435292, 0, 0, 0.435292, 23.5963, 13.98197)" y1="148.945007" x2="255.999986" gradientUnits="userSpaceOnUse" y2="148.945007" id="ae60aef031"><stop stop-opacity="1" stop-color="rgb(2.69928%, 72.198486%, 17.999268%)" offset="0"/><stop stop-opacity="1" stop-color="rgb(2.677917%, 72.026062%, 17.919922%)" offset="0.015625"/><stop stop-opacity="1" stop-color="rgb(2.635193%, 71.682739%, 17.759705%)" offset="0.03125"/><stop stop-opacity="1" stop-color="rgb(2.593994%, 71.339417%, 17.601013%)" offset="0.046875"/><stop stop-opacity="1" stop-color="rgb(2.55127%, 70.996094%, 17.440796%)" offset="0.0625"/><stop stop-opacity="1" stop-color="rgb(2.508545%, 70.651245%, 17.282104%)" offset="0.078125"/><stop stop-opacity="1" stop-color="rgb(2.467346%, 70.307922%, 17.121887%)" offset="0.09375"/><stop stop-opacity="1" stop-color="rgb(2.424622%, 69.9646%, 16.963196%)" offset="0.109375"/><stop stop-opacity="1" stop-color="rgb(2.381897%, 69.621277%, 16.802979%)" offset="0.125"/><stop stop-opacity="1" stop-color="rgb(2.340698%, 69.276428%, 16.644287%)" offset="0.140625"/><stop stop-opacity="1" stop-color="rgb(2.297974%, 68.933105%, 16.485596%)" offset="0.15625"/><stop stop-opacity="1" stop-color="rgb(2.255249%, 68.589783%, 16.325378%)" offset="0.171875"/><stop stop-opacity="1" stop-color="rgb(2.21405%, 68.244934%, 16.166687%)" offset="0.1875"/><stop stop-opacity="1" stop-color="rgb(2.171326%, 67.901611%, 16.00647%)" offset="0.203125"/><stop stop-opacity="1" stop-color="rgb(2.130127%, 67.558289%, 15.847778%)" offset="0.21875"/><stop stop-opacity="1" stop-color="rgb(2.087402%, 67.214966%, 15.687561%)" offset="0.234375"/><stop stop-opacity="1" stop-color="rgb(2.044678%, 66.870117%, 15.52887%)" offset="0.25"/><stop stop-opacity="1" stop-color="rgb(2.003479%, 66.526794%, 15.368652%)" offset="0.265625"/><stop stop-opacity="1" stop-color="rgb(1.960754%, 66.183472%, 15.209961%)" offset="0.28125"/><stop stop-opacity="1" stop-color="rgb(1.91803%, 65.838623%, 15.049744%)" offset="0.296875"/><stop stop-opacity="1" stop-color="rgb(1.876831%, 65.4953%, 14.891052%)" offset="0.3125"/><stop stop-opacity="1" stop-color="rgb(1.834106%, 65.151978%, 14.732361%)" offset="0.328125"/><stop stop-opacity="1" stop-color="rgb(1.791382%, 64.808655%, 14.572144%)" offset="0.34375"/><stop stop-opacity="1" stop-color="rgb(1.750183%, 64.463806%, 14.413452%)" offset="0.359375"/><stop stop-opacity="1" stop-color="rgb(1.707458%, 64.120483%, 14.253235%)" offset="0.375"/><stop stop-opacity="1" stop-color="rgb(1.664734%, 63.777161%, 14.094543%)" offset="0.390625"/><stop stop-opacity="1" stop-color="rgb(1.623535%, 63.432312%, 13.934326%)" offset="0.40625"/><stop stop-opacity="1" stop-color="rgb(1.580811%, 63.088989%, 13.775635%)" offset="0.421875"/><stop stop-opacity="1" stop-color="rgb(1.538086%, 62.745667%, 13.615417%)" offset="0.4375"/><stop stop-opacity="1" stop-color="rgb(1.496887%, 62.402344%, 13.456726%)" offset="0.453125"/><stop stop-opacity="1" stop-color="rgb(1.454163%, 62.057495%, 13.298035%)" offset="0.46875"/><stop stop-opacity="1" stop-color="rgb(1.412964%, 61.714172%, 13.137817%)" offset="0.484375"/><stop stop-opacity="1" stop-color="rgb(1.370239%, 61.37085%, 12.979126%)" offset="0.5"/><stop stop-opacity="1" stop-color="rgb(1.327515%, 61.027527%, 12.818909%)" offset="0.515625"/><stop stop-opacity="1" stop-color="rgb(1.286316%, 60.682678%, 12.660217%)" offset="0.53125"/><stop stop-opacity="1" stop-color="rgb(1.243591%, 60.339355%, 12.5%)" offset="0.546875"/><stop stop-opacity="1" stop-color="rgb(1.200867%, 59.996033%, 12.341309%)" offset="0.5625"/><stop stop-opacity="1" stop-color="rgb(1.159668%, 59.651184%, 12.181091%)" offset="0.578125"/><stop stop-opacity="1" stop-color="rgb(1.116943%, 59.307861%, 12.0224%)" offset="0.59375"/><stop stop-opacity="1" stop-color="rgb(1.074219%, 58.964539%, 11.863708%)" offset="0.609375"/><stop stop-opacity="1" stop-color="rgb(1.03302%, 58.621216%, 11.703491%)" offset="0.625"/><stop stop-opacity="1" stop-color="rgb(0.990295%, 58.276367%, 11.5448%)" offset="0.640625"/><stop stop-opacity="1" stop-color="rgb(0.947571%, 57.933044%, 11.384583%)" offset="0.65625"/><stop stop-opacity="1" stop-color="rgb(0.906372%, 57.589722%, 11.225891%)" offset="0.671875"/><stop stop-opacity="1" stop-color="rgb(0.863647%, 57.244873%, 11.065674%)" offset="0.6875"/><stop stop-opacity="1" stop-color="rgb(0.820923%, 56.90155%, 10.906982%)" offset="0.703125"/><stop stop-opacity="1" stop-color="rgb(0.779724%, 56.558228%, 10.746765%)" offset="0.71875"/><stop stop-opacity="1" stop-color="rgb(0.737%, 56.214905%, 10.588074%)" offset="0.734375"/><stop stop-opacity="1" stop-color="rgb(0.695801%, 55.870056%, 10.427856%)" offset="0.75"/><stop stop-opacity="1" stop-color="rgb(0.653076%, 55.526733%, 10.269165%)" offset="0.765625"/><stop stop-opacity="1" stop-color="rgb(0.610352%, 55.183411%, 10.110474%)" offset="0.78125"/><stop stop-opacity="1" stop-color="rgb(0.569153%, 54.838562%, 9.950256%)" offset="0.796875"/><stop stop-opacity="1" stop-color="rgb(0.526428%, 54.495239%, 9.791565%)" offset="0.8125"/><stop stop-opacity="1" stop-color="rgb(0.483704%, 54.151917%, 9.631348%)" offset="0.828125"/><stop stop-opacity="1" stop-color="rgb(0.442505%, 53.808594%, 9.472656%)" offset="0.84375"/><stop stop-opacity="1" stop-color="rgb(0.39978%, 53.463745%, 9.312439%)" offset="0.859375"/><stop stop-opacity="1" stop-color="rgb(0.357056%, 53.120422%, 9.153748%)" offset="0.875"/><stop stop-opacity="1" stop-color="rgb(0.315857%, 52.7771%, 8.99353%)" offset="0.890625"/><stop stop-opacity="1" stop-color="rgb(0.273132%, 52.433777%, 8.834839%)" offset="0.90625"/><stop stop-opacity="1" stop-color="rgb(0.230408%, 52.088928%, 8.676147%)" offset="0.921875"/><stop stop-opacity="1" stop-color="rgb(0.189209%, 51.745605%, 8.51593%)" offset="0.9375"/><stop stop-opacity="1" stop-color="rgb(0.146484%, 51.402283%, 8.357239%)" offset="0.953125"/><stop stop-opacity="1" stop-color="rgb(0.10376%, 51.057434%, 8.197021%)" offset="0.96875"/><stop stop-opacity="1" stop-color="rgb(0.062561%, 50.714111%, 8.03833%)" offset="0.984375"/><stop stop-opacity="1" stop-color="rgb(0.0198364%, 50.370789%, 7.878113%)" offset="1"/></linearGradient><clipPath id="0162f5abbd"><path d="M 23.597656 15 L 135.019531 15 L 135.019531 142 L 23.597656 142 Z M 23.597656 15 " clip-rule="nonzero"/></clipPath><clipPath id="b90a05a381"><path d="M 85.75 17.730469 L 128.578125 42.652344 C 132.566406 44.972656 135.019531 49.238281 135.019531 53.851562 L 135.019531 103.773438 C 135.019531 108.386719 132.566406 112.65625 128.578125 114.976562 L 85.75 139.894531 C 81.769531 142.210938 76.847656 142.210938 72.867188 139.894531 L 30.039062 114.976562 C 26.050781 112.65625 23.597656 108.386719 23.597656 103.773438 L 23.597656 53.851562 C 23.597656 49.238281 26.050781 44.972656 30.039062 42.652344 L 72.867188 17.730469 C 76.847656 15.414062 81.769531 15.414062 85.75 17.730469 Z M 85.75 17.730469 " clip-rule="nonzero"/></clipPath><clipPath id="1963dfb74a"><path d="M 49.210938 49.355469 L 109.582031 49.355469 L 109.582031 108.234375 L 49.210938 108.234375 Z M 49.210938 49.355469 " clip-rule="nonzero"/></clipPath></defs><g clip-path="url(#6aba3ded14)"><g clip-path="url(#b14562ff7f)"><path fill="url(#6eab645239)" d="M 0.496094 0 L 0.496094 157.632812 L 158.128906 157.632812 L 158.128906 0 Z M 0.496094 0 " fill-rule="nonzero"/></g></g><g clip-path="url(#1de55248fa)"><g clip-path="url(#7cefb60baa)"><path fill="url(#3b443beeba)" d="M 17.824219 7.265625 L 17.824219 150.367188 L 140.800781 150.367188 L 140.800781 7.265625 Z M 17.824219 7.265625 " fill-rule="nonzero"/></g></g><g clip-path="url(#5d463a9301)"><g clip-path="url(#f8c80ca95c)"><path fill="url(#ae60aef031)" d="M 23.597656 15.992188 L 23.597656 141.640625 L 135.03125 141.640625 L 135.03125 15.992188 Z M 23.597656 15.992188 " fill-rule="nonzero"/></g></g><g clip-path="url(#0162f5abbd)"><g clip-path="url(#b90a05a381)"><path stroke-linecap="butt" transform="matrix(0.745312, 0, 0, 0.745312, 23.5963, 13.983952)" fill="none" stroke-linejoin="miter" d="M 83.392807 5.026773 L 140.856121 38.464929 C 146.207274 41.578137 149.498679 47.301407 149.498679 53.491135 L 149.498679 120.472269 C 149.498679 126.661996 146.207274 132.390508 140.856121 135.503716 L 83.392807 168.936631 C 78.052136 172.044597 71.448362 172.044597 66.107691 168.936631 L 8.644377 135.503716 C 3.293224 132.390508 0.00181938 126.661996 0.00181938 120.472269 L 0.00181938 53.491135 C 0.00181938 47.301407 3.293224 41.578137 8.644377 38.464929 L 66.107691 5.026773 C 71.448362 1.918806 78.052136 1.918806 83.392807 5.026773 Z M 83.392807 5.026773 " stroke="#000000" stroke-width="8" stroke-opacity="1" stroke-miterlimit="4"/></g></g><g clip-path="url(#1963dfb74a)"><path fill="#ffde59" d="M 79.308594 49.375 C 62.6875 49.375 49.210938 62.554688 49.210938 78.808594 C 49.210938 95.0625 62.6875 108.238281 79.308594 108.238281 C 95.929688 108.238281 109.40625 95.0625 109.40625 78.808594 C 109.40625 62.554688 95.929688 49.375 79.308594 49.375 Z M 79.332031 51.660156 C 81.496094 51.660156 83.246094 52.34375 83.246094 53.191406 C 83.246094 54.039062 81.496094 54.726562 79.332031 54.726562 C 77.171875 54.726562 75.421875 54.039062 75.421875 53.191406 C 75.421875 52.34375 77.171875 51.660156 79.332031 51.660156 Z M 55.75 75.621094 C 55.652344 78.058594 54.730469 80.003906 53.691406 79.964844 C 52.648438 79.921875 51.878906 77.914062 51.976562 75.472656 C 52.070312 73.035156 52.992188 71.09375 54.035156 71.132812 C 55.078125 71.171875 55.84375 73.183594 55.75 75.621094 Z M 63.402344 99.613281 C 62.8125 100.257812 60.941406 99.511719 59.226562 97.941406 C 57.507812 96.375 56.59375 94.578125 57.183594 93.933594 C 57.773438 93.289062 59.644531 94.035156 61.359375 95.605469 C 63.078125 97.171875 63.992188 98.96875 63.402344 99.613281 Z M 62.371094 60.242188 C 60.742188 61.902344 58.917969 62.753906 58.292969 62.140625 C 57.667969 61.53125 58.480469 59.6875 60.109375 58.027344 C 61.734375 56.367188 63.5625 55.515625 64.1875 56.128906 C 64.8125 56.738281 63.996094 58.582031 62.371094 60.242188 Z M 69.257812 87.34375 C 67.085938 87.34375 65.320312 85.582031 65.320312 83.40625 C 65.320312 81.234375 67.085938 79.472656 69.257812 79.472656 C 71.433594 79.472656 73.195312 81.234375 73.195312 83.40625 C 73.195312 85.582031 71.433594 87.34375 69.257812 87.34375 Z M 75.902344 69.332031 C 75.597656 68.734375 75.421875 68.0625 75.421875 67.347656 C 75.421875 64.941406 77.371094 62.992188 79.777344 62.992188 C 82.183594 62.992188 84.132812 64.941406 84.132812 67.347656 C 84.132812 68.714844 83.503906 69.933594 82.515625 70.734375 L 82.472656 70.769531 C 81.730469 71.355469 80.792969 71.703125 79.777344 71.703125 C 78.089844 71.703125 76.628906 70.746094 75.902344 69.339844 L 75.910156 69.332031 C 75.90625 69.332031 75.90625 69.332031 75.902344 69.332031 Z M 80.296875 102.792969 C 77.976562 102.742188 76.113281 101.859375 76.136719 100.816406 C 76.160156 99.777344 78.058594 98.972656 80.378906 99.023438 C 82.695312 99.078125 84.558594 99.960938 84.535156 101.003906 C 84.511719 102.042969 82.613281 102.84375 80.296875 102.792969 Z M 91.246094 87.324219 L 91.246094 87.328125 C 91.121094 87.339844 90.992188 87.34375 90.863281 87.34375 C 88.917969 87.34375 87.28125 85.875 86.832031 83.894531 L 86.9375 83.867188 L 86.835938 83.890625 C 86.757812 83.539062 86.707031 83.167969 86.707031 82.789062 C 86.707031 80.273438 88.570312 78.230469 90.863281 78.230469 C 93.160156 78.230469 95.019531 80.273438 95.019531 82.789062 C 95.019531 85.164062 93.363281 87.113281 91.246094 87.324219 Z M 92.761719 55.660156 C 93.160156 55.105469 95 55.734375 96.875 57.0625 C 98.75 58.394531 99.949219 59.925781 99.554688 60.480469 C 99.160156 61.039062 97.320312 60.410156 95.445312 59.078125 C 93.570312 57.746094 92.367188 56.214844 92.761719 55.660156 Z M 99.824219 97.058594 C 99.757812 97.128906 99.6875 97.199219 99.621094 97.269531 C 99.621094 97.265625 99.621094 97.265625 99.621094 97.265625 C 99.621094 97.265625 99.621094 97.269531 99.621094 97.269531 L 99.597656 97.296875 C 98.089844 98.851562 96.566406 99.765625 96.125 99.351562 C 96.023438 99.261719 95.984375 99.105469 96.003906 98.90625 L 96.011719 98.890625 C 96.089844 98.160156 96.90625 96.816406 98.136719 95.492188 C 99.710938 93.789062 101.371094 92.761719 101.835938 93.195312 C 102.300781 93.628906 101.402344 95.355469 99.824219 97.058594 Z M 105.785156 78.226562 C 104.914062 78.320312 103.996094 76.394531 103.734375 73.929688 C 103.472656 71.460938 103.960938 69.386719 104.832031 69.292969 C 105.699219 69.203125 106.617188 71.125 106.882812 73.59375 C 107.144531 76.058594 106.65625 78.136719 105.785156 78.226562 Z M 105.785156 78.226562 " fill-opacity="1" fill-rule="nonzero"/></g></svg>